<mxfile host="app.diagrams.net" modified="2022-07-04T20:38:04.323Z" agent="5.0 (Macintosh; Intel Mac OS X 10_15_7) AppleWebKit/537.36 (KHTML, like Gecko) Chrome/103.0.0.0 Safari/537.36" etag="xa-IojQRi3GntI8UpTHk" version="20.0.4" type="github">
  <diagram id="C6lLSABtp-0d-aHHRktV" name="Page-1">
    <mxGraphModel dx="817" dy="515" grid="1" gridSize="10" guides="1" tooltips="1" connect="1" arrows="1" fold="1" page="1" pageScale="1" pageWidth="827" pageHeight="1169" math="0" shadow="0">
      <root>
        <mxCell id="0" />
        <mxCell id="1" parent="0" />
        <mxCell id="lQkfMoKmeb9Hs0Kme1Yj-1" value="" style="rounded=1;arcSize=10;dashed=0;fillColor=none;gradientColor=none;strokeWidth=2;" vertex="1" parent="1">
          <mxGeometry x="110" y="40" width="490" height="450" as="geometry" />
        </mxCell>
        <mxCell id="lQkfMoKmeb9Hs0Kme1Yj-2" value="" style="dashed=0;html=1;shape=mxgraph.aws3.virtual_private_cloud;fillColor=#F58536;gradientColor=none;dashed=0;" vertex="1" parent="1">
          <mxGeometry x="150" y="20" width="52" height="36" as="geometry" />
        </mxCell>
        <mxCell id="lQkfMoKmeb9Hs0Kme1Yj-4" value="us-east-1a" style="rounded=1;arcSize=10;dashed=1;strokeColor=#F59D56;fillColor=none;gradientColor=none;dashPattern=8 4;strokeWidth=2;verticalAlign=top;" vertex="1" parent="1">
          <mxGeometry x="180" y="75" width="390" height="385" as="geometry" />
        </mxCell>
        <mxCell id="lQkfMoKmeb9Hs0Kme1Yj-6" value="knockout-subnet-public1-us-east-1a" style="rounded=1;arcSize=10;dashed=0;fillColor=none;gradientColor=none;strokeWidth=2;verticalAlign=bottom;" vertex="1" parent="1">
          <mxGeometry x="224" y="100" width="306" height="90" as="geometry" />
        </mxCell>
        <mxCell id="lQkfMoKmeb9Hs0Kme1Yj-8" value="knockout-subnet-private1-us-east-1a" style="rounded=1;arcSize=10;dashed=0;fillColor=none;gradientColor=none;strokeWidth=2;verticalAlign=bottom;" vertex="1" parent="1">
          <mxGeometry x="224" y="220" width="306" height="90" as="geometry" />
        </mxCell>
        <mxCell id="lQkfMoKmeb9Hs0Kme1Yj-9" value="" style="dashed=0;html=1;shape=mxgraph.aws3.permissions;fillColor=#D9A741;gradientColor=none;dashed=0;" vertex="1" parent="1">
          <mxGeometry x="244" y="200" width="30" height="35" as="geometry" />
        </mxCell>
        <mxCell id="lQkfMoKmeb9Hs0Kme1Yj-10" value="knockout-subnet-private2-us-east-1a" style="rounded=1;arcSize=10;dashed=0;fillColor=none;gradientColor=none;strokeWidth=2;verticalAlign=bottom;" vertex="1" parent="1">
          <mxGeometry x="224" y="340" width="306" height="90" as="geometry" />
        </mxCell>
        <mxCell id="lQkfMoKmeb9Hs0Kme1Yj-11" value="" style="dashed=0;html=1;shape=mxgraph.aws3.permissions;fillColor=#D9A741;gradientColor=none;dashed=0;" vertex="1" parent="1">
          <mxGeometry x="244" y="320" width="30" height="35" as="geometry" />
        </mxCell>
        <mxCell id="lQkfMoKmeb9Hs0Kme1Yj-17" value="knockout-igw" style="outlineConnect=0;dashed=0;verticalLabelPosition=bottom;verticalAlign=top;align=center;html=1;shape=mxgraph.aws3.internet_gateway;fillColor=#F58536;gradientColor=none;" vertex="1" parent="1">
          <mxGeometry x="83" y="235" width="50" height="50" as="geometry" />
        </mxCell>
      </root>
    </mxGraphModel>
  </diagram>
</mxfile>
